<svg width="127" height="25" viewBox="0 0 127 25" fill="none" xmlns="http://www.w3.org/2000/svg">
<g clip-path="url(#clip0_1897_12120)">
<path d="M11.4449 18.7183C10.8483 19.2915 10.1472 19.7474 9.38233 20.0673C8.54105 20.4198 7.62937 20.6077 6.70337 20.6077C4.85256 20.6077 3.17657 19.8878 1.96358 18.7243C0.750586 17.5608 0 15.9544 0 14.1786C0 12.4028 0.749989 10.797 1.96358 9.63354C3.17657 8.47067 4.85315 7.7513 6.70396 7.7513C7.62221 7.7513 8.52912 7.93739 9.3698 8.28696H9.37517C10.1526 8.61157 10.8668 9.07648 11.473 9.66564L13.2075 11.3291L11.2236 13.231L9.43304 11.5146L9.43722 11.5104C9.09235 11.1864 8.692 10.9278 8.25645 10.7465L8.25764 10.7447C7.78032 10.5467 7.25228 10.4409 6.70396 10.4409C5.62761 10.4409 4.65328 10.86 3.94804 11.536C3.24279 12.212 2.80664 13.1471 2.80664 14.1786C2.80664 15.2101 3.24279 16.1459 3.94804 16.8212C4.65328 17.4972 5.62761 17.9157 6.70396 17.9157C7.25288 17.9157 7.7839 17.8081 8.2654 17.6066C8.70692 17.4223 9.11622 17.156 9.46586 16.8195H9.46466L9.53984 16.7463L9.56609 16.7196H9.56729L16.788 9.79584C17.421 9.14485 18.1823 8.63416 19.0158 8.28696H19.0212C19.8625 7.93739 20.7688 7.7513 21.6876 7.7513C23.5379 7.7513 25.2138 8.47067 26.4274 9.63354C27.6404 10.797 28.391 12.4046 28.391 14.1786C28.391 15.9527 27.641 17.5602 26.4274 18.7237C25.2144 19.8872 23.5385 20.6071 21.6876 20.6071C20.7616 20.6071 19.85 20.4193 19.0081 20.0667C18.2038 19.7302 17.4699 19.2433 16.8542 18.628H16.853L15.1907 17.0353L17.1746 15.1334L18.8368 16.7267L18.8345 16.7297C19.2038 17.109 19.6447 17.4056 20.1256 17.6066C20.6071 17.8087 21.1387 17.9157 21.6876 17.9157C22.7634 17.9157 23.7383 17.4966 24.4436 16.8212C25.1482 16.1453 25.585 15.2113 25.585 14.1786C25.585 13.1459 25.1488 12.2114 24.4436 11.536C23.7383 10.86 22.7634 10.4409 21.6876 10.4409C21.1387 10.4409 20.6101 10.5467 20.1334 10.7447L20.1346 10.7465C19.6495 10.9486 19.2074 11.2453 18.838 11.6246L18.7295 11.5271L18.8398 11.6329L11.4497 18.7207L11.4461 18.7177H11.4449V18.7183ZM14.1949 0C16.2426 0 18.0976 0.796057 19.4395 2.08378C20.6656 3.25914 21.4645 4.84531 21.594 6.60864C20.8398 6.61696 20.0922 6.73171 19.3714 6.94395C19.1805 6.99983 18.992 7.06285 18.8058 7.133V7.11279C18.8058 5.89165 18.2897 4.78586 17.4556 3.98623C16.6215 3.18661 15.4688 2.69137 14.1949 2.69137C12.9211 2.69137 11.7683 3.18661 10.9342 3.98623C10.1001 4.78586 9.58399 5.89225 9.58399 7.11279V7.13419C9.36562 7.05156 9.14247 6.97843 8.91694 6.91541C8.22602 6.7216 7.51302 6.61696 6.79644 6.60864C6.92532 4.84531 7.72423 3.25973 8.95035 2.08378C10.2922 0.796057 12.1472 0 14.1949 0Z" fill="url(#paint0_linear_1897_12120)"/>
<path d="M35.2245 18.2374C33.7 16.76 32.9482 14.8665 32.9482 12.5568C32.9482 10.2471 33.7209 8.31191 35.2662 6.81373C36.8324 5.29474 38.7119 4.54565 40.9255 4.54565C43.7029 4.54565 46.2088 5.83575 47.5662 7.77091L45.6241 9.62282C44.3711 8.06222 42.8467 7.29232 41.0508 7.29232C39.6098 7.29232 38.3778 7.79171 37.3754 8.7905C36.3939 9.78929 35.8927 11.0378 35.8927 12.5568C35.8927 14.0757 36.373 15.2618 37.3545 16.2398C38.336 17.2178 39.5681 17.6964 41.0299 17.6964C42.9302 17.6964 44.4755 16.9265 45.6867 15.3658L47.6706 17.1553C46.2297 19.0905 43.7237 20.4222 40.8837 20.4222C38.6492 20.4222 36.7489 19.6939 35.2245 18.2374Z" fill="#000C43"/>
<path d="M51.1571 20.1933H48.4424V4.37979H51.1571V20.1933Z" fill="#000C43"/>
<path d="M53.9552 10.3309C55.1037 9.18645 56.5446 8.60382 58.3197 8.60382C60.0947 8.60382 61.5356 9.18645 62.6633 10.3309C63.8118 11.4753 64.3757 12.8695 64.3757 14.5341C64.3757 16.1988 63.8118 17.6345 62.6633 18.779C61.5356 19.9234 60.0947 20.4852 58.3197 20.4852C56.5446 20.4852 55.1037 19.9234 53.9552 18.779C52.8275 17.6345 52.2637 16.2196 52.2637 14.5341C52.2637 12.8487 52.8275 11.4753 53.9552 10.3309ZM60.6794 12.1204C60.0321 11.4545 59.2594 11.1216 58.3197 11.1216C57.3799 11.1216 56.6073 11.4545 55.9599 12.1204C55.3126 12.7862 54.9993 13.5978 54.9993 14.5341C54.9993 15.4705 55.3126 16.3028 55.9599 16.9687C56.6073 17.6345 57.3799 17.9675 58.3197 17.9675C59.2594 17.9675 60.0321 17.6345 60.6794 16.9687C61.3268 16.3028 61.64 15.4913 61.64 14.5341C61.64 13.5769 61.3268 12.7862 60.6794 12.1204Z" fill="#000C43"/>
<path d="M65.3145 15.4699V8.89456H68.0501V15.4699C68.0501 16.9889 68.9481 17.9877 70.4307 17.9877C71.9134 17.9877 72.8322 16.9889 72.8322 15.4699V8.89456H75.5679V15.4699C75.5679 18.6119 73.6258 20.4638 70.4307 20.4638C67.2357 20.4638 65.3145 18.6119 65.3145 15.4699Z" fill="#000C43"/>
<path d="M85.7167 4.37979H88.4315V20.1933H85.7794V18.716C84.8397 19.8812 83.6285 20.4638 82.1667 20.4638C80.5587 20.4638 79.2013 19.902 78.1363 18.7784C77.0713 17.6339 76.5283 16.219 76.5283 14.5335C76.5283 12.8481 77.0713 11.4747 78.1363 10.3303C79.2222 9.18586 80.5587 8.62404 82.1458 8.62404C83.5867 8.62404 84.777 9.18586 85.7167 10.3303V4.37979ZM84.9441 16.9895C85.5497 16.3236 85.8629 15.5121 85.8629 14.5341C85.8629 13.5561 85.5497 12.7654 84.9232 12.0996C84.3176 11.4337 83.524 11.1008 82.5426 11.1008C81.5611 11.1008 80.7675 11.4337 80.1619 12.0996C79.5563 12.7654 79.2431 13.577 79.2431 14.5341C79.2431 15.4913 79.5563 16.3236 80.1619 16.9895C80.7675 17.6553 81.5611 17.9883 82.5426 17.9883C83.524 17.9883 84.3385 17.6553 84.9441 16.9895Z" fill="#000C43"/>
<path d="M100.585 10.3511C101.65 11.4956 102.172 12.8897 102.172 14.5335C102.172 16.1774 101.629 17.6131 100.564 18.7576C99.4987 19.902 98.1622 20.4638 96.5542 20.4638C95.1133 20.4638 93.8812 19.902 92.8997 18.7784V24.8335H90.1641V8.89456H92.8788V10.3927C93.8603 9.20668 95.0924 8.62405 96.5751 8.62405C98.183 8.62405 99.5195 9.20668 100.585 10.3511ZM93.7559 17.0097C94.3615 17.6548 95.155 17.9877 96.1365 17.9877C97.118 17.9877 97.9116 17.6548 98.5172 17.0097C99.1228 16.3438 99.436 15.5323 99.436 14.5544C99.436 13.5764 99.1228 12.7649 98.5172 12.1198C97.9116 11.454 97.118 11.121 96.1365 11.121C95.155 11.121 94.3615 11.454 93.7559 12.1198C93.1503 12.7857 92.8371 13.5972 92.8371 14.5544C92.8371 15.5115 93.1503 16.3438 93.7559 17.0097Z" fill="#000C43"/>
<path d="M111.986 8.89456H114.575V20.1933H111.986V18.7992C111.004 19.902 109.772 20.4638 108.289 20.4638C106.66 20.4638 105.324 19.902 104.259 18.7576C103.194 17.6131 102.672 16.1774 102.672 14.4919C102.672 12.8065 103.194 11.3915 104.259 10.2887C105.324 9.18587 106.681 8.62405 108.289 8.62405C109.73 8.62405 110.962 9.18587 111.986 10.3303V8.89456ZM111.109 12.099C110.482 11.4331 109.688 11.1002 108.707 11.1002C107.725 11.1002 106.932 11.4331 106.305 12.099C105.7 12.7649 105.387 13.5764 105.387 14.5335C105.387 15.4907 105.7 16.323 106.305 16.9889C106.932 17.6548 107.725 17.9877 108.707 17.9877C109.688 17.9877 110.482 17.6548 111.109 16.9889C111.735 16.323 112.048 15.5115 112.048 14.5335C112.048 13.5556 111.735 12.7649 111.109 12.099Z" fill="#000C43"/>
<path d="M124.035 8.89456H127L122.406 20.9216C121.32 23.6891 119.942 25 117.791 25C116.935 25 116.225 24.8127 115.703 24.459L116.141 22.1701C116.663 22.4198 117.144 22.5447 117.582 22.5447C118.48 22.5447 119.232 21.9412 119.796 20.7135L120.067 20.0893L115.118 8.89456H118.271L121.341 16.5311L124.035 8.89456Z" fill="#000C43"/>
</g>
<defs>
<linearGradient id="paint0_linear_1897_12120" x1="-0.616935" y1="22.2801" x2="28.8315" y2="3.02468" gradientUnits="userSpaceOnUse">
<stop offset="0.14" stop-color="#00A4FD"/>
<stop offset="0.22" stop-color="#0E9AFC"/>
<stop offset="0.37" stop-color="#3482FC"/>
<stop offset="0.58" stop-color="#715AFC"/>
<stop offset="0.83" stop-color="#C425FC"/>
<stop offset="1" stop-color="#FF00FC"/>
</linearGradient>
<clipPath id="clip0_1897_12120">
<rect width="127" height="25" fill="white"/>
</clipPath>
</defs>
</svg>
